<mxfile host="Electron" modified="2024-01-16T02:57:14.280Z" agent="Mozilla/5.0 (Windows NT 10.0; Win64; x64) AppleWebKit/537.36 (KHTML, like Gecko) draw.io/22.1.18 Chrome/120.0.6099.199 Electron/28.1.2 Safari/537.36" etag="GQ9uKoP1v_A_g5jzZydh" version="22.1.18" type="device">
  <diagram name="第 1 页" id="e3E_jAcYpOixN6wyQfGJ">
    <mxGraphModel dx="1434" dy="836" grid="1" gridSize="10" guides="1" tooltips="1" connect="1" arrows="1" fold="1" page="1" pageScale="1" pageWidth="827" pageHeight="1169" background="#ffffff" math="0" shadow="0">
      <root>
        <mxCell id="0" />
        <mxCell id="1" parent="0" />
        <mxCell id="41ktgsiY6_qsG5R2JAy9-5" style="edgeStyle=orthogonalEdgeStyle;rounded=0;orthogonalLoop=1;jettySize=auto;html=1;exitX=1;exitY=0.5;exitDx=0;exitDy=0;entryX=0;entryY=0.5;entryDx=0;entryDy=0;fontSize=16;" edge="1" parent="1" source="ktZTPxqYLBE77nywF94--1" target="ktZTPxqYLBE77nywF94--2">
          <mxGeometry relative="1" as="geometry" />
        </mxCell>
        <mxCell id="ktZTPxqYLBE77nywF94--1" value="3" style="rounded=0;whiteSpace=wrap;html=1;fontSize=16;" parent="1" vertex="1">
          <mxGeometry x="350" y="400" width="40" height="60" as="geometry" />
        </mxCell>
        <mxCell id="41ktgsiY6_qsG5R2JAy9-6" style="edgeStyle=orthogonalEdgeStyle;rounded=0;orthogonalLoop=1;jettySize=auto;html=1;exitX=1;exitY=0.5;exitDx=0;exitDy=0;fontSize=16;" edge="1" parent="1" source="ktZTPxqYLBE77nywF94--2" target="41ktgsiY6_qsG5R2JAy9-2">
          <mxGeometry relative="1" as="geometry" />
        </mxCell>
        <mxCell id="ktZTPxqYLBE77nywF94--2" value="7" style="rounded=0;whiteSpace=wrap;html=1;fontSize=16;" parent="1" vertex="1">
          <mxGeometry x="420" y="400" width="40" height="60" as="geometry" />
        </mxCell>
        <mxCell id="41ktgsiY6_qsG5R2JAy9-8" style="edgeStyle=orthogonalEdgeStyle;rounded=0;orthogonalLoop=1;jettySize=auto;html=1;exitX=1;exitY=0.5;exitDx=0;exitDy=0;fontSize=16;" edge="1" parent="1" source="ktZTPxqYLBE77nywF94--4" target="ktZTPxqYLBE77nywF94--5">
          <mxGeometry relative="1" as="geometry" />
        </mxCell>
        <mxCell id="ktZTPxqYLBE77nywF94--4" value="12" style="rounded=0;whiteSpace=wrap;html=1;fontSize=16;" parent="1" vertex="1">
          <mxGeometry x="560" y="400" width="40" height="60" as="geometry" />
        </mxCell>
        <mxCell id="ktZTPxqYLBE77nywF94--5" value="14" style="rounded=0;whiteSpace=wrap;html=1;fontSize=16;" parent="1" vertex="1">
          <mxGeometry x="630" y="400" width="40" height="60" as="geometry" />
        </mxCell>
        <mxCell id="41ktgsiY6_qsG5R2JAy9-7" style="edgeStyle=orthogonalEdgeStyle;rounded=0;orthogonalLoop=1;jettySize=auto;html=1;exitX=1;exitY=0.5;exitDx=0;exitDy=0;entryX=0;entryY=0.5;entryDx=0;entryDy=0;fontSize=16;" edge="1" parent="1" source="41ktgsiY6_qsG5R2JAy9-2" target="ktZTPxqYLBE77nywF94--4">
          <mxGeometry relative="1" as="geometry" />
        </mxCell>
        <mxCell id="41ktgsiY6_qsG5R2JAy9-2" value="10" style="rounded=1;whiteSpace=wrap;html=1;shadow=0;glass=0;fontSize=16;labelBackgroundColor=none;fillColor=#e51400;fontColor=#000000;strokeColor=#B20000;" vertex="1" parent="1">
          <mxGeometry x="490" y="400" width="40" height="60" as="geometry" />
        </mxCell>
        <mxCell id="41ktgsiY6_qsG5R2JAy9-10" style="edgeStyle=orthogonalEdgeStyle;rounded=0;orthogonalLoop=1;jettySize=auto;html=1;exitX=1;exitY=0.5;exitDx=0;exitDy=0;entryX=0;entryY=0.5;entryDx=0;entryDy=0;fontSize=16;" edge="1" parent="1" source="41ktgsiY6_qsG5R2JAy9-3" target="41ktgsiY6_qsG5R2JAy9-4">
          <mxGeometry relative="1" as="geometry" />
        </mxCell>
        <mxCell id="41ktgsiY6_qsG5R2JAy9-3" value="7&lt;br style=&quot;font-size: 16px;&quot;&gt;——&lt;br style=&quot;font-size: 16px;&quot;&gt;2" style="rounded=0;whiteSpace=wrap;html=1;fontSize=16;" vertex="1" parent="1">
          <mxGeometry x="420" y="340" width="40" height="60" as="geometry" />
        </mxCell>
        <mxCell id="41ktgsiY6_qsG5R2JAy9-4" value="14&lt;br style=&quot;font-size: 16px;&quot;&gt;——&lt;br style=&quot;font-size: 16px;&quot;&gt;3" style="rounded=0;whiteSpace=wrap;html=1;fontSize=16;" vertex="1" parent="1">
          <mxGeometry x="630" y="340" width="40" height="60" as="geometry" />
        </mxCell>
        <mxCell id="41ktgsiY6_qsG5R2JAy9-9" value="" style="endArrow=classic;html=1;rounded=0;entryX=0;entryY=0.5;entryDx=0;entryDy=0;fontSize=16;" edge="1" parent="1" target="41ktgsiY6_qsG5R2JAy9-3">
          <mxGeometry width="50" height="50" relative="1" as="geometry">
            <mxPoint x="350" y="370" as="sourcePoint" />
            <mxPoint x="440" y="440" as="targetPoint" />
          </mxGeometry>
        </mxCell>
        <mxCell id="41ktgsiY6_qsG5R2JAy9-11" style="edgeStyle=orthogonalEdgeStyle;rounded=0;orthogonalLoop=1;jettySize=auto;html=1;exitX=1;exitY=0.5;exitDx=0;exitDy=0;entryX=0;entryY=0.5;entryDx=0;entryDy=0;fontSize=16;" edge="1" parent="1" source="41ktgsiY6_qsG5R2JAy9-12" target="41ktgsiY6_qsG5R2JAy9-14">
          <mxGeometry relative="1" as="geometry" />
        </mxCell>
        <mxCell id="41ktgsiY6_qsG5R2JAy9-12" value="3" style="rounded=0;whiteSpace=wrap;html=1;fontSize=16;" vertex="1" parent="1">
          <mxGeometry x="750" y="400" width="40" height="60" as="geometry" />
        </mxCell>
        <mxCell id="41ktgsiY6_qsG5R2JAy9-13" style="edgeStyle=orthogonalEdgeStyle;rounded=0;orthogonalLoop=1;jettySize=auto;html=1;exitX=1;exitY=0.5;exitDx=0;exitDy=0;fontSize=16;" edge="1" parent="1" source="41ktgsiY6_qsG5R2JAy9-14" target="41ktgsiY6_qsG5R2JAy9-19">
          <mxGeometry relative="1" as="geometry" />
        </mxCell>
        <mxCell id="41ktgsiY6_qsG5R2JAy9-14" value="7" style="rounded=0;whiteSpace=wrap;html=1;fontSize=16;" vertex="1" parent="1">
          <mxGeometry x="820" y="400" width="40" height="60" as="geometry" />
        </mxCell>
        <mxCell id="41ktgsiY6_qsG5R2JAy9-15" style="edgeStyle=orthogonalEdgeStyle;rounded=0;orthogonalLoop=1;jettySize=auto;html=1;exitX=1;exitY=0.5;exitDx=0;exitDy=0;fontSize=16;" edge="1" parent="1" source="41ktgsiY6_qsG5R2JAy9-16" target="41ktgsiY6_qsG5R2JAy9-17">
          <mxGeometry relative="1" as="geometry" />
        </mxCell>
        <mxCell id="41ktgsiY6_qsG5R2JAy9-16" value="12" style="rounded=0;whiteSpace=wrap;html=1;fontSize=16;" vertex="1" parent="1">
          <mxGeometry x="960" y="400" width="40" height="60" as="geometry" />
        </mxCell>
        <mxCell id="41ktgsiY6_qsG5R2JAy9-17" value="14" style="rounded=0;whiteSpace=wrap;html=1;fontSize=16;" vertex="1" parent="1">
          <mxGeometry x="1030" y="400" width="40" height="60" as="geometry" />
        </mxCell>
        <mxCell id="41ktgsiY6_qsG5R2JAy9-18" style="edgeStyle=orthogonalEdgeStyle;rounded=0;orthogonalLoop=1;jettySize=auto;html=1;exitX=1;exitY=0.5;exitDx=0;exitDy=0;entryX=0;entryY=0.5;entryDx=0;entryDy=0;fontSize=16;" edge="1" parent="1" source="41ktgsiY6_qsG5R2JAy9-19" target="41ktgsiY6_qsG5R2JAy9-16">
          <mxGeometry relative="1" as="geometry" />
        </mxCell>
        <mxCell id="41ktgsiY6_qsG5R2JAy9-19" value="10" style="rounded=1;whiteSpace=wrap;html=1;shadow=0;glass=0;fontSize=16;fillColor=#e51400;fontColor=#000000;strokeColor=#B20000;" vertex="1" parent="1">
          <mxGeometry x="890" y="400" width="40" height="60" as="geometry" />
        </mxCell>
        <mxCell id="41ktgsiY6_qsG5R2JAy9-20" style="edgeStyle=orthogonalEdgeStyle;rounded=0;orthogonalLoop=1;jettySize=auto;html=1;exitX=1;exitY=0.5;exitDx=0;exitDy=0;entryX=0;entryY=0.5;entryDx=0;entryDy=0;fontSize=16;" edge="1" parent="1" source="41ktgsiY6_qsG5R2JAy9-21" target="41ktgsiY6_qsG5R2JAy9-24">
          <mxGeometry relative="1" as="geometry" />
        </mxCell>
        <mxCell id="41ktgsiY6_qsG5R2JAy9-21" value="7&lt;br style=&quot;font-size: 16px;&quot;&gt;——&lt;br style=&quot;font-size: 16px;&quot;&gt;2" style="rounded=0;whiteSpace=wrap;html=1;fontSize=16;" vertex="1" parent="1">
          <mxGeometry x="820" y="340" width="40" height="60" as="geometry" />
        </mxCell>
        <mxCell id="41ktgsiY6_qsG5R2JAy9-22" value="14&lt;br style=&quot;font-size: 16px;&quot;&gt;——&lt;br style=&quot;font-size: 16px;&quot;&gt;2" style="rounded=0;whiteSpace=wrap;html=1;fontSize=16;" vertex="1" parent="1">
          <mxGeometry x="1030" y="340" width="40" height="60" as="geometry" />
        </mxCell>
        <mxCell id="41ktgsiY6_qsG5R2JAy9-23" value="" style="endArrow=classic;html=1;rounded=0;entryX=0;entryY=0.5;entryDx=0;entryDy=0;fontSize=16;" edge="1" parent="1" target="41ktgsiY6_qsG5R2JAy9-21">
          <mxGeometry width="50" height="50" relative="1" as="geometry">
            <mxPoint x="750" y="370" as="sourcePoint" />
            <mxPoint x="840" y="440" as="targetPoint" />
          </mxGeometry>
        </mxCell>
        <mxCell id="41ktgsiY6_qsG5R2JAy9-25" style="edgeStyle=orthogonalEdgeStyle;rounded=0;orthogonalLoop=1;jettySize=auto;html=1;exitX=1;exitY=0.5;exitDx=0;exitDy=0;entryX=0;entryY=0.5;entryDx=0;entryDy=0;fontSize=16;" edge="1" parent="1" source="41ktgsiY6_qsG5R2JAy9-24" target="41ktgsiY6_qsG5R2JAy9-22">
          <mxGeometry relative="1" as="geometry" />
        </mxCell>
        <mxCell id="41ktgsiY6_qsG5R2JAy9-24" value="10&lt;br style=&quot;font-size: 16px;&quot;&gt;——&lt;br style=&quot;font-size: 16px;&quot;&gt;1" style="rounded=1;whiteSpace=wrap;html=1;shadow=0;glass=0;fontSize=16;fillColor=#e51400;fontColor=#000000;strokeColor=#B20000;" vertex="1" parent="1">
          <mxGeometry x="890" y="340" width="40" height="60" as="geometry" />
        </mxCell>
        <mxCell id="41ktgsiY6_qsG5R2JAy9-26" value="" style="shape=flexArrow;endArrow=classic;html=1;rounded=0;fontSize=16;" edge="1" parent="1">
          <mxGeometry width="50" height="50" relative="1" as="geometry">
            <mxPoint x="680" y="400" as="sourcePoint" />
            <mxPoint x="740" y="400" as="targetPoint" />
          </mxGeometry>
        </mxCell>
      </root>
    </mxGraphModel>
  </diagram>
</mxfile>
